<?xml version="1.0" encoding="utf-8"?>
<!-- Generator: Adobe Illustrator 21.1.0, SVG Export Plug-In . SVG Version: 6.00 Build 0)  -->
<svg version="1.1" id="Слой_1" xmlns="http://www.w3.org/2000/svg" xmlns:xlink="http://www.w3.org/1999/xlink" x="0px" y="0px"
	 viewBox="0 0 184.1 111.2" style="enable-background:new 0 0 184.1 111.2;" xml:space="preserve">
<style type="text/css">
	.st0{fill:#FFFFFF;}
</style>
<g>
	<path d="M0.1,37.1c0-3.7,0-7.3,0-11c0.8-0.5,0.8-1.3,1.1-2.1C4.6,11.8,12.5,4.1,24.8,1c0.8-0.2,1.5-0.6,2.3-0.9c3.3,0,6.7,0,10,0
		c0.3,0.2,0.5,0.5,0.8,0.6c11.6,2.6,19.7,9.4,24,20.5c0.8,2.2,2,2.3,3.8,1.6c8.7-3.1,17.7-4.5,26.9-4.7c3.6-0.1,4.9-2.3,3.4-5.5
		c-0.4-0.9-1.3-1.5-1.8-2.4c-1.7-2.9-1.2-6.1,1.3-8.1c2.1-1.6,5.3-1.7,7.4-0.1c2.4,1.9,3.1,5.3,1.5,8.1c-0.3,0.6-0.9,1-1.2,1.6
		c-2.4,3.7-1.3,6.1,3,6.6c9.1,1,18.1,2.9,26.6,6.4c20.9,8.7,34.7,24.2,43.1,44.9c4.2,10.4,6.9,21.2,7.4,32.5c0.2,5.1-1.7,7-6.7,7.2
		c-0.5,0-1,0-1.5,0c-51.5,0-103,0-154.5,0c-6.6,0-8.5-2.3-7.9-9c1-12.2,3.8-24,8.6-35.2c1.3-3.1,1.3-3.2-1.9-4.7
		C9.7,56.1,3.6,48.9,1,38.7C0.9,38.1,0.7,37.5,0.1,37.1z M137.9,81.3c0,6,0,12,0,18c0,4.2,0.1,4.2,4.1,4.2c10.3,0,20.7,0,31,0
		c4.5,0,4.6-0.1,4.2-4.4c-1.2-12.4-4.6-24.2-10.4-35.2c-7.5-14.5-18.3-25.9-33.4-32.5c-20.9-9.2-42.5-9.8-64.5-3.7
		c-3.7,1-5.1,2.8-5.6,6.8c-1.8,16.8-14.3,28-31.2,28.5C29.3,63,28,64,27,66.4c-4.6,10.5-7.3,21.4-8.4,32.7c-0.4,4.1-0.4,4.3,3.7,4.3
		c9.8,0.1,19.7,0,29.5,0c4.4,0,4.4-0.1,4.4-4.4c0-11.8,0-23.7,0-35.5c0-5.3,1.2-6.4,6.5-6.4c7.8,0,15.7,0,23.5,0
		c0.6,0,1.7-0.1,1.8-0.4c0.2-0.8-0.8-0.9-1.3-1.2c-7.3-3.5-10.3-9.5-9.8-17.5c0.2-2.3,1-3.2,3.3-3.2c7.2,0.1,13.6,2.1,17.5,8.6
		c1.5,2.4,2.1,2,3.7,0.2c2.2-2.5,5.2-3.5,8.5-3.8c2-0.2,3,0.4,3.3,2.6c0.6,6-1.7,10.3-7,13.1c-0.5,0.3-1.4,0.4-1,1.2
		c0.1,0.3,0.9,0.3,1.4,0.3c8,0,16,0,24,0c6.6,0,7.3,0.8,7.3,7.5C137.9,70.3,137.9,75.8,137.9,81.3z M57.1,31.9
		C57.8,18.3,46.5,6.8,31.9,6.2C18.8,5.7,5.1,19.3,6.2,31.8c1.4,15.7,10.7,24.6,25.6,25C46.3,57.3,57.6,45,57.1,31.9z M97.2,63.1
		c-10.5,0-21,0-31.5,0c-3.5,0-3.6,0.1-3.6,3.6c-0.1,2.8,0,5.7,0,8.5c0,1.5,0.1,3,1.1,4.2c6.7,8.8,15.2,10.7,23.6,3.7
		c2.3-1.9,4.4-4.1,6.9-5.8c5.4-3.9,9.9-3.6,14.9,0.8c2,1.8,3.7,3.8,5.7,5.6c4,3.5,8.6,5.1,13.8,3.2c2.5-0.9,4.2-2.4,4-5.5
		c-0.2-4.8,0-9.7-0.1-14.5c0-3.8-0.1-3.9-3.9-3.9C117.8,63.1,107.5,63.1,97.2,63.1z M96.6,101.4c9.7,0,19.3,0.1,29,0
		c6.9,0,6.5,1.3,6.5-6.8c0-2.1-0.6-2.4-2.7-1.9c-8.2,2.3-15-0.3-20.8-6.2c-0.8-0.8-1.6-1.7-2.4-2.5c-4.5-4.4-6.2-4.5-11-0.4
		c-2.8,2.4-5.3,5.1-8.5,6.9c-7,3.9-13.9,3.9-20.7-0.5c-0.7-0.5-1.3-1-2-1.5c-1.3-0.9-1.7-0.2-1.7,1.1c0,2.7,0,5.3,0,8
		c0.1,3.7,0.1,3.8,4,3.8C76.2,101.5,86.4,101.4,96.6,101.4z M95.5,51.4c-0.3-5.6-5.9-11-11.5-11.3c-1.9-0.1-2.2,0.8-2,2.4
		c0.5,5.1,6.9,10.6,12.3,10.4C95.3,52.9,95.7,52.3,95.5,51.4z M104,51.1c1.9-0.6,3.3-1.9,4-3.8c0.1-0.4-0.1-1.3-0.2-1.3
		c-1.9-0.4-2.8,1.1-3.8,2.4c-0.4,0.5-0.6,1.1-0.8,1.8C103,50.6,103.4,50.9,104,51.1z M100.1,7c0-0.5-0.3-0.8-0.8-0.9
		c-0.6-0.1-0.9,0.2-1,0.7c-0.1,0.7,0.3,1.2,1.1,1.1C99.8,7.9,100.1,7.5,100.1,7z"/>
	<path class="st0" d="M0.1,37.1c0.6,0.4,0.8,1,1,1.6c2.6,10.2,8.7,17.4,18.3,21.7c3.2,1.4,3.2,1.5,1.9,4.7
		c-4.8,11.3-7.6,23-8.6,35.2c-0.5,6.7,1.3,9,7.9,9c51.5,0,103,0,154.5,0c0.5,0,1,0,1.5,0c5-0.2,6.9-2.2,6.7-7.2
		c-0.5-11.3-3.2-22.1-7.4-32.5c-8.4-20.6-22.2-36.2-43.1-44.9c-8.5-3.5-17.5-5.4-26.6-6.4c-4.3-0.5-5.4-2.9-3-6.6
		c0.4-0.6,0.9-1,1.2-1.6c1.6-2.8,1-6.2-1.5-8.1c-2.1-1.6-5.4-1.6-7.4,0.1c-2.5,2-3.1,5.2-1.3,8.1c0.5,0.8,1.4,1.5,1.8,2.4
		c1.5,3.2,0.2,5.4-3.4,5.5c-9.2,0.2-18.2,1.6-26.9,4.7c-1.8,0.7-2.9,0.6-3.8-1.6c-4.3-11.1-12.4-17.9-24-20.5
		c-0.3-0.1-0.5-0.4-0.8-0.6c47.5,0,94.9,0,142.4,0c1,0,2,0.1,3,0c1.7-0.3,1.8,0.6,1.7,1.9c-0.1,0.5,0,1,0,1.5
		c0,34.8,0,69.6,0.1,104.4c0,2.8-0.6,3.3-3.3,3.3c-59.3-0.1-118.6-0.1-177.8,0c-2.7,0-3-0.8-3-3.1C0.1,84.4,0.1,60.7,0.1,37.1z"/>
	<path class="st0" d="M27.1,0.1c-0.7,0.3-1.5,0.7-2.3,0.9C12.5,4.1,4.6,11.8,1.1,24c-0.2,0.8-0.2,1.6-1.1,2.1c0-8,0.1-16-0.1-24
		C0,0.3,0.3,0,2.1,0C10.4,0.2,18.7,0.1,27.1,0.1z"/>
	<path class="st0" d="M137.9,81.3c0-5.5,0-11,0-16.5c0-6.8-0.7-7.5-7.3-7.5c-8,0-16,0-24,0c-0.5,0-1.3,0-1.4-0.3
		c-0.4-0.8,0.5-1,1-1.2c5.4-2.8,7.7-7.1,7-13.1c-0.2-2.2-1.2-2.8-3.3-2.6c-3.3,0.3-6.3,1.4-8.5,3.8c-1.6,1.8-2.2,2.3-3.7-0.2
		c-3.9-6.5-10.2-8.5-17.5-8.6c-2.3,0-3.2,0.8-3.3,3.2c-0.5,8,2.5,13.9,9.8,17.5c0.5,0.3,1.5,0.4,1.3,1.2c-0.1,0.3-1.1,0.4-1.8,0.4
		c-7.8,0-15.7,0-23.5,0c-5.4,0-6.5,1.1-6.5,6.4c-0.1,11.8,0,23.7,0,35.5c0,4.3-0.1,4.4-4.4,4.4c-9.8,0-19.7,0-29.5,0
		c-4.1,0-4.1-0.2-3.7-4.3c1.1-11.3,3.9-22.3,8.4-32.7c1.1-2.4,2.3-3.4,5.2-3.5C49,62.5,61.5,51.2,63.3,34.5c0.4-3.9,1.8-5.7,5.6-6.8
		c21.9-6.2,43.5-5.5,64.5,3.7c15.1,6.6,25.9,18,33.4,32.5c5.7,11,9.2,22.8,10.4,35.2c0.4,4.3,0.3,4.4-4.2,4.4c-10.3,0-20.7,0-31,0
		c-4,0-4-0.1-4.1-4.2C137.8,93.3,137.9,87.3,137.9,81.3z M139.3,41.2c-1.4-0.1-2.5,0.4-3,1.6c-0.5,1.1-0.4,2.3,0.6,3.2
		c0.5,0.4,1.1,0.8,1.6,1.1c10.4,5.9,17.2,15,21.9,25.8c1.8,4.1,3.1,8.4,4.3,12.7c0.5,2,1.5,3.6,3.8,2.9c2.2-0.6,2.3-2.4,1.8-4.5
		c-2-8.5-5.3-16.5-10-23.8c-4.5-6.9-10-12.9-17.1-17.2C142,42.3,140.7,41.4,139.3,41.2z M133,37.5c-0.4-1.9-1.6-3.1-3.4-3
		c-1.9,0.1-3.1,1.3-3.2,3.2c-0.1,1.8,1.9,3.5,3.7,3.2C131.9,40.7,132.9,39.4,133,37.5z"/>
	<path class="st0" d="M57.1,31.9C57.6,45,46.3,57.3,31.8,56.8c-14.9-0.5-24.1-9.3-25.6-25C5.1,19.3,18.8,5.7,31.9,6.2
		C46.5,6.8,57.8,18.3,57.1,31.9z M41.1,28.1l-0.3-0.3c0.4-1.8,1.4-3.3,2.4-4.8c0.5-0.7,1-1.6,0.5-2.3c-0.6-0.9-1.8-0.6-2.7-0.6
		c-1.5,0-1.9,1.2-2.5,2.1c-1.8,2.7-3.5,5.5-5.2,8.3c-3.7,6.2-3.1,7.2,4.1,7.4c1.7,0,3.9-0.5,3.7,2.5c-0.1,1.4,0.9,1.5,2,1.5
		c1.2,0,1.8-0.6,1.8-1.8c-0.1-1.4,0.6-1.8,1.9-2.4c1.8-0.9,1.7-3.5-0.1-4.6c-0.9-0.5-1.9-0.7-1.7-2C45.5,28,43.4,28,41.1,28.1z
		 M21.8,42C21.8,42,21.8,42,21.8,42c1.7,0,3.3,0,5,0c1.3,0,2.2-0.2,2.3-1.9c0-1.5-0.7-1.9-2.1-2c-1.4-0.1-3.5,0.7-4-0.6
		c-0.4-1.2,1.7-2.2,2.5-3.4c0.5-0.7,1.2-1.2,1.5-2c0.8-2.2,2.7-4.3,1.7-6.9c-0.9-2.5-2.3-4.8-5.4-5.1c-3.2-0.4-5.4,1.1-7.1,3.6
		c-0.4,0.6-1.2,1.2-0.5,2.2c0.7,0.9,1.6,1.3,2.6,0.9c0.7-0.2,1.3-1,2-1.4c1.1-0.6,2.2-0.7,3.2,0.2c1,0.9,0.8,2.1,0.3,3.2
		c-0.7,1.7-1.8,3.1-3.2,4.4c-1.6,1.5-3,3.1-4.6,4.6c-1,0.9-1,2.1-0.7,3.2c0.4,1.3,1.6,0.9,2.5,0.9C19.1,42.1,20.4,42,21.8,42z"/>
	<path class="st0" d="M97.2,63.1c10.3,0,20.6,0,31,0c3.8,0,3.8,0.1,3.9,3.9c0.1,4.8-0.2,9.7,0.1,14.5c0.1,3.1-1.5,4.6-4,5.5
		c-5.3,1.9-9.8,0.2-13.8-3.2c-2-1.7-3.7-3.8-5.7-5.6c-5-4.4-9.5-4.7-14.9-0.8c-2.4,1.7-4.6,3.9-6.9,5.8c-8.3,7-16.9,5.1-23.6-3.7
		c-1-1.3-1.1-2.7-1.1-4.2c0-2.8,0-5.7,0-8.5c0.1-3.5,0.1-3.6,3.6-3.6C76.2,63.1,86.7,63.1,97.2,63.1z"/>
	<path class="st0" d="M96.6,101.4c-10.2,0-20.3,0-30.5,0c-3.9,0-3.9-0.1-4-3.8c-0.1-2.7,0-5.3,0-8c0-1.3,0.4-2,1.7-1.1
		c0.7,0.5,1.3,1,2,1.5c6.8,4.4,13.7,4.4,20.7,0.5c3.2-1.8,5.8-4.5,8.5-6.9c4.8-4.1,6.5-4,11,0.4c0.8,0.8,1.6,1.7,2.4,2.5
		c5.8,5.9,12.6,8.6,20.8,6.2c2-0.6,2.7-0.2,2.7,1.9c0,8.1,0.4,6.8-6.5,6.8C115.9,101.5,106.2,101.4,96.6,101.4z"/>
	<path class="st0" d="M95.5,51.4c0.2,1-0.2,1.5-1.2,1.6c-5.4,0.1-11.9-5.4-12.3-10.4c-0.1-1.6,0.1-2.5,2-2.4
		C89.6,40.4,95.2,45.8,95.5,51.4z"/>
	<path class="st0" d="M104,51.1c-0.6-0.2-1-0.5-0.8-1c0.2-0.6,0.4-1.2,0.8-1.8c0.9-1.3,1.9-2.7,3.8-2.4c0.2,0,0.4,0.9,0.2,1.3
		C107.2,49.2,105.9,50.5,104,51.1z"/>
	<path class="st0" d="M100.1,7c0,0.6-0.3,0.9-0.8,1c-0.8,0.1-1.2-0.4-1.1-1.1c0.1-0.5,0.4-0.8,1-0.7C99.8,6.1,100.1,6.4,100.1,7z"/>
	<path d="M139.3,41.2c1.4,0.2,2.7,1.1,3.9,1.8c7.1,4.3,12.6,10.3,17.1,17.2c4.7,7.3,8,15.3,10,23.8c0.5,2.1,0.4,3.8-1.8,4.5
		c-2.3,0.7-3.2-1-3.8-2.9c-1.2-4.3-2.5-8.6-4.3-12.7C155.7,62.1,149,53,138.6,47.1c-0.6-0.3-1.2-0.7-1.6-1.1c-1-0.9-1.1-2.1-0.6-3.2
		C136.9,41.6,137.9,41.1,139.3,41.2z"/>
	<path d="M133,37.5c-0.1,1.9-1,3.1-2.9,3.4c-1.8,0.3-3.8-1.4-3.7-3.2c0.1-1.9,1.3-3.2,3.2-3.2C131.4,34.5,132.6,35.6,133,37.5z"/>
	<path d="M41.1,28.1c2.3-0.2,4.4-0.1,3.9,3.2c-0.2,1.2,0.8,1.4,1.7,2c1.8,1,1.9,3.7,0.1,4.6c-1.2,0.6-1.9,1-1.9,2.4
		c0.1,1.2-0.5,1.8-1.8,1.8c-1.1,0-2.1-0.2-2-1.5c0.1-3-2-2.4-3.7-2.5c-7.3-0.2-7.8-1.2-4.1-7.4c1.7-2.8,3.4-5.6,5.2-8.3
		c0.6-0.9,1-2.2,2.5-2.1c1,0,2.1-0.4,2.7,0.6c0.5,0.7-0.1,1.6-0.5,2.3c-1,1.5-2.1,2.9-2.4,4.8c-1.4,0.7-1.7,2.3-2.5,3.4
		c-0.4,0.5-1.4,1.3,0,1.7c0.9,0.3,2.4,0.7,2.7-1C41.2,30.7,41.1,29.4,41.1,28.1z"/>
	<path d="M21.8,42c-1.3,0-2.7,0.1-4,0c-0.9-0.1-2.1,0.4-2.5-0.9c-0.3-1.1-0.3-2.3,0.7-3.2c1.5-1.5,3-3.1,4.6-4.6
		c1.3-1.3,2.4-2.7,3.2-4.4c0.5-1.1,0.7-2.3-0.3-3.2c-1-0.9-2.1-0.8-3.2-0.2c-0.7,0.4-1.2,1.2-2,1.4c-1,0.3-1.9,0-2.6-0.9
		c-0.7-1,0.1-1.6,0.5-2.2c1.7-2.5,3.9-4,7.1-3.6c3.1,0.4,4.5,2.6,5.4,5.1c1,2.5-0.9,4.7-1.7,6.9c-0.3,0.7-1,1.3-1.5,2
		c-0.8,1.2-3,2.1-2.5,3.4c0.5,1.4,2.6,0.6,4,0.6c1.4,0.1,2.1,0.5,2.1,2c0,1.6-1,1.9-2.3,1.9C25.1,42,23.4,42,21.8,42
		C21.8,42,21.8,42,21.8,42z"/>
	<path class="st0" d="M41.1,28.1c0,1.3,0.1,2.6-0.1,3.9c-0.3,1.7-1.8,1.3-2.7,1c-1.4-0.4-0.3-1.2,0-1.7c0.8-1.2,1.1-2.7,2.5-3.4
		L41.1,28.1z"/>
</g>
</svg>
