<?xml version="1.0" encoding="utf-8"?>
<!-- Generator: Adobe Illustrator 21.1.0, SVG Export Plug-In . SVG Version: 6.00 Build 0)  -->
<svg version="1.1" id="Layer_1" xmlns="http://www.w3.org/2000/svg" xmlns:xlink="http://www.w3.org/1999/xlink" x="0px" y="0px"
	 viewBox="0 0 518 518" style="enable-background:new 0 0 518 518;" xml:space="preserve">
<g>
	<path d="M442.1,75.9C393.3,26.9,328.3,0,259,0C189.7,0,124.7,26.9,75.9,75.9C26.9,124.7,0,189.7,0,259s26.9,134.3,75.9,183.1
		c48.9,48.9,114,75.9,183.1,75.9c69.3,0,134.3-26.9,183.1-75.9c48.9-48.9,75.9-114,75.9-183.1C518,189.7,491.1,124.7,442.1,75.9z
		 M427.2,427.2c-44.9,44.9-104.6,69.6-168.2,69.6s-123.3-24.7-168.2-69.6c-44.9-45-69.6-104.7-69.6-168.2
		c0-63.6,24.7-123.3,69.6-168.2c45-44.9,104.7-69.6,168.2-69.6c63.6,0,123.3,24.7,168.2,69.6c44.9,44.9,69.6,104.6,69.6,168.2
		C496.8,322.5,472.1,382.2,427.2,427.2L427.2,427.2z"/>
	<path d="M456.5,174.7l-1.3-2.7l-19.2,8.9l1.3,2.7c12.8,27.4,19.3,56.9,19.3,87.6v3h21.2v-3C477.8,237.4,470.6,204.9,456.5,174.7z"
		/>
	<path d="M449.6,154.4c-10-16.9-22.1-32.5-36-46.4C370.4,64.8,313,41,252,41h-3v21.2h3c55.3,0,107.4,21.6,146.7,60.7
		c12.6,12.6,23.6,26.8,32.6,42.2l1.5,2.6l18.3-10.7L449.6,154.4z"/>
	<path d="M330.2,280.4c23.1-23.1,22.3-60.6,21.4-71.5l0-0.4c-0.5-4.6-4.1-8.2-8.7-8.7l-9,0c-15.4,0-44.1,2.8-63,21.7
		c-0.7,0.7-1.4,1.5-2.1,2.3v-10.6c7-6.4,32.1-31.6,32.1-62.8c0-37.4-35.4-65.7-35.7-65.9c-3.6-3-8.7-3-12.3,0
		c-0.4,0.3-35.7,29-35.7,66c0,30,23.6,54.8,32.1,62.8v10.2c-0.7-0.8-1.4-1.6-2.1-2.3c-18.9-18.9-47.6-21.7-63-21.7h-8.7l-0.3,0
		c-4.6,0.5-8.2,4.1-8.7,8.7l0,0.3c0,0.1,0,0.3,0,0.6c-0.8,14.1-0.5,49.1,21.5,71.1c18.3,18.3,45.6,21.5,61.4,21.7v31.6
		c-0.7-0.7-1.4-1.5-2.2-2.2c-18.9-18.9-47.6-21.7-63-21.7h-8.7l-0.3,0c-4.6,0.5-8.2,4.1-8.7,8.7l0,0.3c0,0.1,0,0.3,0,0.6
		c-0.8,14.1-0.5,49.1,21.5,71.1c18.3,18.3,45.6,21.5,61.4,21.7v57.1c0,5.4,4.4,9.8,9.8,9.8c5.4,0,9.8-4.4,9.8-9.8v-56.6
		c15.8-0.2,43.1-3.5,61.3-21.7c23.1-23.1,22.3-60.6,21.4-71.5l0-0.3c-0.3-4.6-3.8-8.3-8.5-8.8l-9,0c-15.4,0-44.1,2.8-63,21.7
		c-0.7,0.7-1.4,1.5-2.1,2.3v-31.6C284.6,301.9,312,298.6,330.2,280.4z M286.8,343.2c13.9-12.2,35.4-14.2,45.8-14.4
		c-0.3,15.2-3.5,35-16,47.7c-13.1,13.4-34.8,15.9-47.6,16c0.3-13.1,2.9-34.5,16-47.6L286.8,343.2L286.8,343.2z M201.8,266.6
		c-13.1-13.1-15.8-34.5-16-47.6c10.8,0.2,33.8,2.3,47.6,16.1c13.1,13.1,15.8,34.5,16,47.6C239.4,282.6,215.9,280.8,201.8,266.6z
		 M249.4,392.5c-9.9-0.1-33.4-1.9-47.6-16.1c-13.1-13.1-15.8-34.5-16-47.6c13.1,0.3,34.6,2.9,47.6,16
		C246.7,358.3,249.2,379.6,249.4,392.5z M268.7,282.7c0.9-21.7,6.4-37.8,16.4-47.7l2.6-2.6c13.9-11.3,34.5-13.2,44.6-13.3
		c-0.3,15.2-3.5,34.9-16.1,47.6C302.2,280.9,277.7,282.6,268.7,282.7z M281.5,150.4c0,19.3-14.4,36.9-22.2,45.1
		c-7.9-8.1-22.4-25.6-22.4-45.1c0-18.5,13.2-35.5,22.3-44.9C267.1,113.6,281.5,131.2,281.5,150.4z"/>
</g>
</svg>
