<?xml version="1.0" encoding="utf-8"?>
<!-- Generator: Adobe Illustrator 21.1.0, SVG Export Plug-In . SVG Version: 6.00 Build 0)  -->
<svg version="1.1" id="Layer_1" xmlns="http://www.w3.org/2000/svg" xmlns:xlink="http://www.w3.org/1999/xlink" x="0px" y="0px"
	 viewBox="0 0 526.1 330" style="enable-background:new 0 0 526.1 330;" xml:space="preserve">
<path d="M501.7,249.1c-11-13.1-23-24.7-36.4-37.4c-1.4-1.3-2.8-2.7-4.2-4c-2.9-2.7-5.8-5.5-8.7-8.3c-5.7-5.6-6.6-7.8-6.7-8.2
	c0.1-0.5,0.6-2.8,4.9-8.8c6.6-9.3,13.7-18.6,20.9-28.1l2.8-3.7c5.3-7,10.8-14.2,16.1-21.5l1.4-2c12.3-17,25-34.6,32-56.7
	c2.3-7.3,4.7-18.3-1.6-28.5C515.8,32,505,29,497.4,27.7c-3.7-0.6-7.1-0.7-9.7-0.7L410,26.9c-16.4-0.3-28.3,7.8-34.5,23.4
	c-3.9,9.7-8.7,21.7-14.2,32.8c-10.1,20.5-22.8,44-40.5,63.5c0-0.2,0-0.4,0-0.6l0-0.1l-0.1-90.3c0-0.6,0-1.4-0.2-2.5
	c-1.3-9.8-4.1-30.2-31-35.5l-0.6-0.1c-0.7-0.1-1.6-0.2-2.8-0.2h-80.9c-18.1,0-27.9,8.6-35,16.9c-6.3,7.3-8.2,14.8-5.6,22.2
	c2.6,7.2,8.6,11.8,18,13.7c5.8,1.1,8.2,3.8,9.2,10.4c2.7,17.7,3,37,1.1,60.6c-0.2,2.6-0.6,4.9-0.9,6.9c-3.1-3.3-6-7.4-8.6-11
	c-17.8-25.2-32.7-52.8-45.6-84.6c-6.5-16-19-25-35.1-25.3c-25-0.4-48.1-0.4-70.7,0C18.9,27.3,9.5,31.8,4.1,40.2
	C-1.3,48.7-1.4,59.1,4,71.2c31.4,69.8,59.9,120.6,92.6,164.9c23.4,31.6,47,53.6,74.3,69.3c29,16.6,61.3,24.6,98.9,24.6
	c4.2,0,8.5-0.1,12.9-0.3c25.9-1.2,38-13,39.2-38.4c0.6-10.8,1.6-18.8,5.2-25.5c3.7,2.6,7.1,6,9.3,8.4c1.5,1.6,3,3.3,4.5,5
	c1.5,1.7,3.1,3.4,4.5,5c5.8,6.6,12.8,14.3,20,21.7c17,17.3,36.7,25.3,58.6,23.7h71l0.9,0l0.2,0c10.6-0.6,19.7-6.5,25.2-16.1
	c6.2-11,6.1-24.7-0.1-36.8C515.3,266,508,256.7,501.7,249.1z M203,186.3c5.7-1.6,13.6-6,18.8-18.1c2.9-6.7,4.5-14,5.4-23.7
	c2.2-26.2,1.8-48-1.2-68.7c-1.3-9.2-4.7-17.2-9.9-23.6h68.5c0.4,0.1,0.8,0.2,1,0.3c0.2,0.7,0.5,2.1,1,4.9l0.1,88.4
	c-0.3,11.9,5.6,33.1,22.7,39.4l1.2,0.4h0.3c16.9,5,28.2-7.3,32.5-12l0.7-0.8c22.1-23.5,36.9-50.6,48.4-74.1
	c5.9-11.8,10.8-24,15.3-35.3c0.4-0.9,0.6-1.4,0.7-1.7c0.3,0,0.9,0,1.4,0l78.1,0.1c0.8,0,1.8,0,2.7,0c-5.5,16.1-15.7,30.2-26.4,45.2
	l-1.6,2.2c-4.8,6.7-10,13.5-15,20.1l-3.4,4.5c-6.1,7.9-14,18.4-21.4,28.9c-16.7,23.4-15,41.2,5.8,61.5c4.4,4.3,8.9,8.6,13.3,12.7
	c11.5,10.8,23.4,22,33.6,34.4c5.2,6.3,11.1,13.7,15.2,21.8c0.5,1,0.7,1.8,0.7,2.5h-68.8l-0.6,0c-11.7,1-21.8-3.3-31.9-13.4
	c-6.2-6.4-12.2-13-18.9-20.5c-3.2-3.6-6.2-7.1-9.4-10.4c-4.5-4.9-9.6-9.9-16.2-14.2c-11.3-7.4-21.1-7.1-27.3-5.5
	c-6.1,1.6-14.7,5.8-21.1,17.4c-7.4,13.5-9,27.7-9.7,41c-0.1,2.4-0.3,4-0.5,5c-1.1,0.2-3,0.5-6,0.6c-36.4,1.7-66.8-4.7-93.1-19.8
	c-23.1-13.2-43.3-32.2-63.7-59.9c-30.3-41-57.2-88.7-86.9-154.1c20.6-0.3,41.9-0.3,64.7,0.1c1.3,0,2.3,0.1,3.8,3.8
	c13.9,34.2,30.1,64.1,49.4,91.5c5,7.1,11.8,16.8,22.2,23.9C188.2,188.4,197.3,188,203,186.3z"/>
</svg>
