<?xml version="1.0" encoding="utf-8"?>
<!-- Generator: Adobe Illustrator 21.1.0, SVG Export Plug-In . SVG Version: 6.00 Build 0)  -->
<svg version="1.1" id="Capa_1" xmlns="http://www.w3.org/2000/svg" xmlns:xlink="http://www.w3.org/1999/xlink" x="0px" y="0px"
	 viewBox="0 0 626.1 514.4" style="enable-background:new 0 0 626.1 514.4;" xml:space="preserve">
<path d="M617.1,59.6c-4.5-3.1-10-4.3-15.2-3.4c7.1-14.2,7.2-24,7-27.4c-0.6-7.5-5.2-14.1-11.9-17.3c-6.9-3.2-15-2.5-21,2
	c-22.2,15.9-44.3,20.5-59.7,21.5c-25.4-22.6-58-35-92-35c-76.4,0-138.5,62.1-138.5,138.5c0,2.8,0.1,5.6,0.2,8.3
	c-57.4-3.8-109-33.2-142.8-57.7c-39.3-28.6-64.1-57.3-64.3-57.7c-4.4-5.2-11.1-7.9-17.7-7.3c-6.7,0.6-12.8,4.4-16.2,10.2
	c-31.7,54.1-18.3,103.3-3.4,133.1c-1.2,0.3-2.4,0.8-3.5,1.4c-7,3.5-11.4,10.5-11.6,18.3c-0.9,54.4,22.9,88.1,45.6,107.8
	c-4.3,5.4-5.6,12.6-3.5,19.1c15.7,50.6,49.2,74.9,78.8,86.5c-30.2,16.5-64.9,20.2-90,20.2c-16,0-28.2-1.6-32.7-2.3
	c-0.1,0-0.3,0-0.4-0.1c-9.4-1.6-18.8,3.6-22.6,12.2c-3.9,8.8-1.2,19.1,6.6,25c64.6,48.6,142.5,58.8,196.5,58.8
	c39.5,0,68.2-5.4,73.5-6.5l0.4-0.1c63.5-14.8,117.7-40.7,161.3-76.8c35.9-29.7,64.8-66.6,85.9-109.6
	c35.7-72.7,39.3-143.8,39.4-168.3c49.2-45.4,58.3-64.6,59.9-70.7C627.7,73.9,624.4,64.7,617.1,59.6z M523.5,145.5
	c0.2,2.6,14.4,258.9-254,321.6l-0.1,0c-1.3,0.3-27.3,5.6-64.5,5.6c-26.2,0-62.7-2.7-99.7-14.4c43.6-7.8,79.6-26.5,105.2-54.9
	c5.5-6.1,6.9-15,3.5-22.5c-3.3-7.5-10.8-12.3-19.1-12.3c-2,0-45.5-0.5-72.1-37.8c8.7-0.8,16.7-2.7,23.2-5.6c8.2-3.8,13-12.3,12-21.2
	c-0.9-8.9-7.5-16.2-16.4-18.2l-0.1,0c-0.6-0.1-53.4-11.3-68.9-64.1c7.4,1.7,16,2.7,24.9,1.4c8.1-1.2,14.7-7,17-14.9
	c2.3-7.9-0.3-16.4-6.5-21.7c-2.3-2-52.7-46-38-104.3c39.6,38,125.4,106.7,228.7,106.7c4.3,0,8.6-0.1,12.9-0.4
	c6.3-0.3,12.2-3.5,15.7-8.6c3.7-5,4.9-11.6,3.3-17.5c-2-7.9-3-16-3-24c0-53.3,43.4-96.7,96.7-96.7c26.1,0,50.6,10.3,69.1,29
	c4,4,9.2,6.1,14.6,6.1h2.1c5.4,0,12.2-0.3,20.1-1.4c-1.1,0.9-2.2,1.7-3.3,2.6c-7.4,5.7-10.1,15.4-6.7,24.1c3.3,8.6,12,14,21.2,13.3
	l0.5,0c0.7-0.1,1.8-0.2,3.2-0.3c-4.6,4.4-9.5,8.9-14.7,13.6l-0.1,0.1C525.5,133.1,523,139.2,523.5,145.5z"/>
</svg>
